<?xml version="1.0" encoding="UTF-8"?>
<svg width="134px" height="73px" viewBox="0 0 134 73" version="1.1" xmlns="http://www.w3.org/2000/svg" xmlns:xlink="http://www.w3.org/1999/xlink">
    <title>logo</title>
    <defs>
        <rect id="path-1" x="0" y="0" width="134" height="73"></rect>
    </defs>
    <g id="logo" stroke="none" stroke-width="1" fill="none" fill-rule="evenodd">
        <mask id="mask-2" fill="white">
            <use xlink:href="#path-1"></use>
        </mask>
        <g id="Clip" fill-rule="nonzero"></g>
        <polygon id="Vector" fill="#FFFFFF" fill-rule="nonzero" mask="url(#mask-2)" points="29.726743 43.7914848 28.5925879 44.9265056 28.5925879 43.7914848 21.0713654 43.7914848 21.0713654 73 28.5925879 73 28.5925879 52.0477418 29.3139541 51.3251767 31.6844473 51.3251767 32.4058104 52.0477418 32.4058104 53.8029631 39.9786339 53.8029631 39.9786339 49.0216971 34.7570804 43.7914848"></polygon>
        <path d="M65.6341622,62.0075352 L70.7859116,56.8472516 L70.7859116,48.9517715 L65.6341622,43.7914848 L57.0303862,43.7914848 L51.878643,48.9517715 L51.878643,67.8397102 L57.0303862,73 L65.6341622,73 L70.7859116,67.8397102 L70.7859116,62.9885156 L63.2130857,62.9885156 L63.2130857,64.6910437 L62.4917195,65.4136057 L60.1222423,65.4136057 L59.4008761,64.6910437 L59.4008761,62.0075352 L65.6341622,62.0075352 Z M59.4008761,52.0477418 L60.1222423,51.3251767 L62.4917195,51.3251767 L63.2130857,52.0477418 L63.2130857,54.4221615 L62.4917195,55.1964022 L60.1222423,55.1964022 L59.4008761,54.4221615 L59.4008761,52.0477418 Z" id="Vector" fill="#FFFFFF" fill-rule="nonzero" mask="url(#mask-2)"></path>
        <polygon id="Vector" fill="#FFFFFF" fill-rule="nonzero" mask="url(#mask-2)" points="81.6053879 43.7914848 80.4722453 44.9265056 80.4722453 43.7914848 72.9500046 43.7914848 72.9500046 73 80.4722453 73 80.4722453 52.0477418 81.1936117 51.3251767 83.5630893 51.3251767 84.2844557 52.0477418 84.2844557 73 91.8572769 73 91.8572769 48.9517715 86.7055327 43.7914848"></polygon>
        <polygon id="Vector" fill="#FFFFFF" fill-rule="nonzero" mask="url(#mask-2)" points="120.244477 43.7914848 115.091713 48.9517715 115.091713 56.6405119 120.244477 61.8008017 126.426165 61.8008017 126.426165 65.4693482 122.613961 65.4693482 122.613961 62.9885156 115.091713 62.9885156 115.091713 67.8386958 120.244477 73 128.848261 73 134 67.8386958 134 60.1499523 128.848261 54.9896688 122.613961 54.9896688 122.613961 51.3221366 126.426165 51.3221366 126.426165 53.8029631 134 53.8029631 134 48.9517715 128.848261 43.7914848"></polygon>
        <polygon id="Vector" fill="#FFFFFF" fill-rule="nonzero" mask="url(#mask-2)" points="5.15174472 36.8759727 0 42.0362565 0 73 7.52223539 73 7.52223539 62.0075348 11.6946224 62.0075348 11.6946224 54.4221609 7.52223539 54.4221609 7.52223539 45.1332382 8.24258963 44.4106793 10.6130803 44.4106793 11.3344457 45.1332382 11.3344457 46.8874544 18.9072685 46.8874544 18.9072685 42.0362565 13.7555238 36.8759727"></polygon>
        <polygon id="Vector" fill="#FFFFFF" fill-rule="nonzero" mask="url(#mask-2)" points="42.1558838 50.523571 49.7287025 50.523571 49.7287025 73 42.1558838 73"></polygon>
        <path d="M105.355814,37.6867027 L105.355814,43.7914853 L99.1731138,43.7914853 L94.0213699,48.9517719 L94.0213699,67.8397103 L99.1731138,73 L112.928635,73 L112.928635,37.6867027 L105.354801,37.6867027 L105.355814,37.6867027 Z M105.355814,64.6910438 L104.634448,65.4136059 L102.26497,65.4136059 L101.543604,64.6910438 L101.543604,52.0477422 L102.26497,51.3251771 L104.634448,51.3251771 L105.355814,52.0477422 L105.355814,64.6910438 Z" id="Vector" fill="#FFFFFF" fill-rule="nonzero" mask="url(#mask-2)"></path>
        <polygon id="Vector" fill="#FFFFFF" fill-rule="nonzero" mask="url(#mask-2)" points="42.1558838 0 49.7287025 0 49.7287025 4.66878128 42.1558838 4.66878128"></polygon>
        <polygon id="Vector" fill="#FFFFFF" fill-rule="nonzero" mask="url(#mask-2)" points="42.1558838 43.7914848 49.7287025 43.7914848 49.7287025 48.4602661 42.1558838 48.4602661"></polygon>
        <path d="M34.8400421,12.8419353 L28.6057428,12.8419353 L28.6057428,6.3905654 L21.0835075,6.3905654 L21.0835075,42.050447 L34.8390325,42.050447 L39.9907761,36.8901605 L39.9907761,18.0032335 L34.8390325,12.8429489 L34.8400421,12.8419353 Z M32.4189654,33.8428381 L31.6975991,34.565397 L29.3281217,34.565397 L28.6067555,33.8428381 L28.6067555,21.0981894 L29.3281217,20.3756273 L31.6975991,20.3756273 L32.4189654,21.0981894 L32.4189654,33.8428381 Z" id="Vector" fill="#FFFFFF" fill-rule="nonzero" mask="url(#mask-2)"></path>
        <polygon id="Vector" fill="#FFFFFF" fill-rule="nonzero" mask="url(#mask-2)" points="42.1558838 6.73208475 49.7287025 6.73208475 49.7287025 42.0504479 42.1558838 42.0504479"></polygon>
        <path d="M65.6483275,6.64594507 L57.0445498,6.64594507 L51.8927994,11.8062299 L51.8927994,25.9443175 L57.0445498,31.1046008 L63.2778371,31.1046008 L63.2778371,33.8397987 L62.5564708,34.5623545 L60.1869931,34.5623545 L59.4656268,33.8397987 L59.4656268,32.0855812 L51.8927994,32.0855812 L51.8927994,36.9367802 L57.0445498,42.0514588 L65.6483275,42.0514588 L70.8000717,36.9367802 L70.8000717,11.8062299 L65.6483275,6.64594507 Z M63.2788498,22.8483488 L62.5574835,23.5709093 L60.1880059,23.5709093 L59.4666395,22.8483488 L59.4666395,15.0045525 L60.1880059,14.2819905 L62.5574835,14.2819905 L63.2788498,15.0045525 L63.2788498,22.8483488 Z" id="Vector" fill="#FFFFFF" fill-rule="nonzero" mask="url(#mask-2)"></path>
    </g>
</svg>